Coordinates
version=1
nRows=17
nColumns=24
inDegrees=yes

Units are S.I. units (second, meters, Newtons, ...)
Angles are in degrees.

endheader
time	pelvis_tilt	pelvis_list	pelvis_rotation	pelvis_tx	pelvis_ty	pelvis_tz	hip_flexion_r	hip_adduction_r	hip_rotation_r	knee_angle_r	ankle_angle_r	subtalar_angle_r	mtp_angle_r	hip_flexion_l	hip_adduction_l	hip_rotation_l	knee_angle_l	ankle_angle_l	subtalar_angle_l	mtp_angle_l	lumbar_extension	lumbar_bending	lumbar_rotation
      1.19000000	     24.88377808	     -6.71203262	     -3.47409680	     -0.54113954	      0.88488257	      0.01098573	    -48.33463936	      5.13350905	     19.98273501	      1.57975100	     11.73865903	      5.29571087	     30.29810119	     -1.88631142	     -4.60610361	     11.70612529	     -7.77963501	     -3.84277215	    -34.41617739	     35.06937657	    -31.99173135	      4.05423987	     10.48999704
      1.19500000	     24.84670439	     -6.61595825	     -3.65475380	     -0.53452229	      0.88472943	      0.01079932	    -48.45908334	      4.92980286	     19.85133412	      1.04314625	     11.59454812	      5.59741806	     30.42374589	     -2.06198008	     -4.30992469	     11.69221454	     -8.20017540	     -4.24574949	    -34.07412705	     35.10925863	    -31.86449922	      3.82804957	     10.59144003
      1.20000000	     24.83282451	     -6.52247689	     -3.79260922	     -0.52788319	      0.88467967	      0.01055949	    -48.54430723	      4.77071910	     19.54803638	      0.37488837	     11.45235749	      6.22844653	     30.82302403	     -2.23830428	     -4.01711008	     11.65748144	     -8.67481940	     -4.52310438	    -33.63290077	     35.22676746	    -31.75923875	      3.62032880	     10.64458106
      1.20500000	     24.80367236	     -6.41266365	     -3.92807755	     -0.52120070	      0.88470538	      0.01032431	    -48.60472979	      4.59985897	     19.28606304	     -0.29012338	     11.20223932	      6.72076640	     31.41435225	     -2.42574711	     -3.71563202	     11.66980044	     -9.08905867	     -4.87581161	    -33.22496151	     35.37240771	    -31.63154124	      3.39740880	     10.70315395
      1.21000000	     24.74073576	     -6.32775291	     -4.04199518	     -0.51455387	      0.88479372	      0.01006404	    -48.61748538	      4.46890416	     19.21305448	     -0.95840252	     10.81434221	      6.82194788	     31.53390772	     -2.58627868	     -3.44990060	     11.75878811	     -9.46701025	     -5.33876175	    -32.95395625	     35.39740670	    -31.47670757	      3.21321748	     10.74223247
      1.21500000	     24.73766961	     -6.18948704	     -4.12768155	     -0.50783446	      0.88502048	      0.00975912	    -48.65346665	      4.30859026	     18.85207950	     -1.66576376	     10.21972251	      7.19302239	     35.54384452	     -2.81914075	     -3.12906211	     11.87454510	     -9.82969753	     -5.74744117	    -32.67659812	     36.18317529	    -31.37141397	      2.98193536	     10.77367712
      1.22000000	     24.75483625	     -6.04848771	     -4.22878054	     -0.50111631	      0.88538989	      0.00950327	    -48.66712808	      4.13871431	     18.54078722	     -2.47533325	      9.79533893	      7.79959355	     35.78152427	     -3.09426288	     -2.81149173	     11.94704277	    -10.16101536	     -6.18969535	    -32.46793887	     36.23411307	    -31.29028655	      2.73221470	     10.80230820
      1.22500000	     24.73947418	     -5.90392155	     -4.27527734	     -0.49438601	      0.88581367	      0.00917017	    -48.62122930	      4.00722920	     18.21152024	     -3.30793044	      9.27136363	      8.43424922	     36.09727736	     -3.32451554	     -2.50102075	     12.13683036	    -10.50217851	     -6.64504860	    -32.21628132	     36.27996331	    -31.17219311	      2.50976784	     10.80510240
      1.23000000	     24.75553614	     -5.75368608	     -4.32686009	     -0.48760666	      0.88636674	      0.00887357	    -48.50462583	      3.88183157	     17.67551306	     -4.35590987	      8.78834047	      9.39861749	     36.72626480	     -3.61583549	     -2.19124170	     12.27274037	    -10.81030169	     -6.95718917	    -32.09844247	     36.33602765	    -31.08426415	      2.27223013	     10.76519814
      1.23500000	     24.76764054	     -5.59914399	     -4.34840900	     -0.48083658	      0.88700499	      0.00854156	    -48.35273701	      3.77145730	     17.13392111	     -5.43334320	      8.18367387	     10.33115955	     37.55062450	     -3.90098656	     -1.88595194	     12.46286552	    -11.12469190	     -7.28861067	    -31.98539997	     36.37990928	    -30.99458413	      2.04387009	     10.71894918
      1.24000000	     24.78482864	     -5.44044527	     -4.35207965	     -0.47404639	      0.88773578	      0.00820890	    -48.16894405	      3.66754786	     16.55435785	     -6.55561784	      7.44937825	     11.29683907	     38.39839146	     -4.20661177	     -1.58773188	     12.67617857	    -11.42106037	     -7.56383985	    -31.87701630	     36.39453303	    -30.90823130	      1.81607186	     10.66362482
      1.24500000	     24.78701543	     -5.30121718	     -4.34504239	     -0.46729490	      0.88854047	      0.00787310	    -47.92233188	      3.59377551	     16.01287128	     -7.71842983	      6.43373770	     11.82965401	     42.75206717	     -4.51053327	     -1.31787991	     12.94133202	    -11.69262789	     -7.94951994	    -31.97839943	     36.25422655	    -30.81430153	      1.61494268	     10.63280640
      1.25000000	     24.82344503	     -5.12182814	     -4.32638047	     -0.46045958	      0.88943159	      0.00755127	    -47.63910198	      3.48275328	     15.23588247	     -9.03970340	      5.59068590	     13.07896067	     43.07054379	     -4.85248110	     -1.01909481	     13.12252702	    -11.99019494	     -7.98791068	    -31.74095933	     36.25077089	    -30.74419994	      1.36997642	     10.56682143
      1.25500000	     24.84961471	     -4.94762025	     -4.29122545	     -0.45363544	      0.89035568	      0.00719967	    -47.26526145	      3.38141146	     14.35842567	    -10.49547274	      4.69984534	     14.46986384	     43.56001372	     -5.20361947	     -0.73536014	     13.33702890	    -12.24971619	     -8.04099344	    -31.61138958	     36.18124484	    -30.66726584	      1.14119010	     10.46919509
      1.26000000	     24.86290034	     -4.76835630	     -4.25207032	     -0.44681450	      0.89132405	      0.00687302	    -46.81002931	      3.27064790	     13.39415925	    -12.05484025	      3.71425466	     15.91096653	     44.20617377	     -5.55372945	     -0.45903238	     13.53724197	    -12.49053275	     -8.08669869	    -31.51570624	     36.04404682	    -30.57993672	      0.90656132	     10.35964279
      1.26500000	     24.87410299	     -4.57151892	     -4.20030330	     -0.43996750	      0.89231457	      0.00651426	    -46.30215520	      3.13259779	     12.32746702	    -13.67620477	      2.59209645	     17.38369624	     44.92954154	     -5.92659804	     -0.17048160	     13.77527787	    -12.69170451	     -8.03719062	    -31.43668596	     35.86164087	    -30.48547116	      0.66238793	     10.24492428
      1.27000000	     24.87854291	     -4.36365380	     -4.14921614	     -0.43312411	      0.89331984	      0.00615044	    -45.72448437	      2.96272701	     11.17567953	    -15.38669020	      1.36716037	     18.86089666	     45.72440491	     -6.31759115	      0.12124275	     14.01453173	    -12.84575961	     -7.93591110	    -31.36545876	     35.62100504	    -30.38650256	      0.40914662	     10.12417163
